{
  "source": "C:\\Users\\Peter\\Desktop\\stuff\\MIUN\\quantitative_research\\video_compression\\videos\\BVI-HD\\BVI-HD_CDVL_videos\\ORIG\\TreeTrunk_1920x1080_50fps.mp4",
  "output": "C:\\Users\\Peter\\Desktop\\stuff\\MIUN\\quantitative_research\\video_compression\\compressed_videos\\BVI-HD\\hevc\\1\\TreeTrunk_1920x1080_50fps_hevc.mp4",
  "codec": "hevc",
  "ok": "Input #0, mov,mp4,m4a,3gp,3g2,mj2, from 'C:\\Users\\Peter\\Desktop\\stuff\\MIUN\\quantitative_research\\video_compression\\videos\\BVI-HD\\BVI-HD_CDVL_videos\\ORIG\\TreeTrunk_1920x1080_50fps.mp4':\n  Metadata:\n    major_brand     : isom\n    minor_version   : 512\n    compatible_brands: isomiso2avc1mp41\n    encoder         : Lavf54.28.101\n  Duration: 00:00:05.00, start: 0.000000, bitrate: 622415 kb/s\n  Stream #0:0[0x1](und): Video: h264 (High 4:4:4 Predictive) (avc1 / 0x31637661), yuv420p(progressive), 1920x1080, 622410 kb/s, 50 fps, 50 tbr, 50 tbn (default)\n    Metadata:\n      handler_name    : VideoHandler\n      vendor_id       : [0][0][0][0]\n[out#0/mp4 @ 00000266023a7d80] Codec AVOption b:a (set bitrate (in bits/s)) has not been used for any stream. The most likely reason is either wrong type (e.g. a video option with no video streams) or that it is a private option of some decoder which was not actually used for any stream.\nStream mapping:\n  Stream #0:0 -> #0:0 (h264 (native) -> hevc (libx265))\nPress [q] to stop, [?] for help\n[libx265 @ 0000026602f50b40] Unknown option: \"aq-mode.\nx265 [info]: HEVC encoder version 4.1+190-8f11c33ac\nx265 [info]: build info [Windows][GCC 15.1.0][64 bit] 10bit\nx265 [info]: using cpu capabilities: MMX2 SSE2Fast LZCNT SSSE3 SSE4.2 AVX FMA3 BMI2 AVX2\nx265 [info]: Main 10 profile, Level-4.1 (Main tier)\nx265 [info]: Thread pool created using 12 threads\nx265 [info]: Slices                              : 1\nx265 [info]: frame threads / pool features       : 3 / wpp(17 rows)\nx265 [info]: Coding QT: max CU size, min CU size : 64 / 8\nx265 [info]: Residual QT: max TU size, max depth : 32 / 1 inter / 1 intra\nx265 [info]: ME / range / subpel / merge         : star / 57 / 3 / 3\nx265 [info]: Keyframe min / max / scenecut / bias  : 25 / 250 / 40 / 5.00 \nx265 [info]: Lookahead / bframes / badapt        : 25 / 4 / 2\nx265 [info]: b-pyramid / weightp / weightb       : 1 / 1 / 0\nx265 [info]: References / ref-limit  cu / depth  : 4 / on / on\nx265 [info]: AQ: mode / str / qg-size / cu-tree  : 2 / 1.0 / 32 / 1\nx265 [info]: Rate Control / qCompress            : ABR-1000 kbps / 0.60\nx265 [info]: VBV/HRD buffer / max-rate / init    : 1000 / 1000 / 0.750\nx265 [info]: tools: rect limit-modes rd=4 psy-rd=2.00 rdoq=2 psy-rdoq=1.00\nx265 [info]: tools: rskip mode=1 signhide tmvp strong-intra-smoothing lslices=4\nx265 [info]: tools: deblock sao dhdr10-info\nOutput #0, mp4, to 'C:\\Users\\Peter\\Desktop\\stuff\\MIUN\\quantitative_research\\video_compression\\compressed_videos\\BVI-HD\\hevc\\1\\TreeTrunk_1920x1080_50fps_hevc.mp4':\n  Metadata:\n    major_brand     : isom\n    minor_version   : 512\n    compatible_brands: isomiso2avc1mp41\n    encoder         : Lavf62.3.100\n  Stream #0:0(und): Video: hevc (hev1 / 0x31766568), yuv420p10le(tv, progressive), 1920x1080, q=2-31, 1000 kb/s, 50 fps, 12800 tbn (default)\n    Metadata:\n      encoder         : Lavc62.11.100 libx265\n      handler_name    : VideoHandler\n      vendor_id       : [0][0][0][0]\n    Side data:\n      cpb: bitrate max/min/avg: 1000000/0/1000000 buffer size: 1000000 vbv_delay: N/A\nframe=    0 fps=0.0 q=0.0 size=       0KiB time=N/A bitrate=N/A speed=N/A elapsed=0:00:03.03    \nframe=    0 fps=0.0 q=0.0 size=       0KiB time=N/A bitrate=N/A speed=N/A elapsed=0:00:03.59    \nframe=    0 fps=0.0 q=0.0 size=       0KiB time=N/A bitrate=N/A speed=N/A elapsed=0:00:04.17    \nframe=    0 fps=0.0 q=0.0 size=       0KiB time=N/A bitrate=N/A speed=N/A elapsed=0:00:04.68    \nframe=    0 fps=0.0 q=0.0 size=       0KiB time=N/A bitrate=N/A speed=N/A elapsed=0:00:05.20    \nframe=    0 fps=0.0 q=0.0 size=       0KiB time=N/A bitrate=N/A speed=N/A elapsed=0:00:05.74    \nframe=    0 fps=0.0 q=0.0 size=       0KiB time=N/A bitrate=N/A speed=N/A elapsed=0:00:06.30    \nframe=    0 fps=0.0 q=0.0 size=       0KiB time=N/A bitrate=N/A speed=N/A elapsed=0:00:06.83    \nframe=    0 fps=0.0 q=0.0 size=       0KiB time=N/A bitrate=N/A speed=N/A elapsed=0:00:07.36    \nframe=    1 fps=0.1 q=47.1 size=       0KiB time=-00:00:00.02 bitrate=N/A speed=N/A elapsed=0:00:07.89    \nframe=    1 fps=0.1 q=47.1 size=       0KiB time=-00:00:00.02 bitrate=N/A speed=N/A elapsed=0:00:08.41    \nframe=    3 fps=0.3 q=51.0 size=       0KiB time=00:00:00.02 bitrate=  17.6kbits/s speed=0.00224x elapsed=0:00:08.94    \nframe=    4 fps=0.4 q=51.0 size=       0KiB time=00:00:00.04 bitrate=   8.8kbits/s speed=0.00423x elapsed=0:00:09.45    \nframe=    4 fps=0.4 q=51.0 size=       0KiB time=00:00:00.04 bitrate=   8.8kbits/s speed=0.004x elapsed=0:00:09.98    \nframe=    5 fps=0.5 q=51.0 size=       0KiB time=00:00:00.06 bitrate=   5.9kbits/s speed=0.0057x elapsed=0:00:10.52    \nframe=    6 fps=0.5 q=51.0 size=       0KiB time=00:00:00.08 bitrate=   4.4kbits/s speed=0.00724x elapsed=0:00:11.04    \nframe=    7 fps=0.6 q=51.0 size=       0KiB time=00:00:00.10 bitrate=   3.5kbits/s speed=0.00864x elapsed=0:00:11.56    \nframe=    7 fps=0.6 q=51.0 size=       0KiB time=00:00:00.10 bitrate=   3.5kbits/s speed=0.00828x elapsed=0:00:12.07    \nframe=    8 fps=0.6 q=51.0 size=       0KiB time=00:00:00.12 bitrate=   2.9kbits/s speed=0.00953x elapsed=0:00:12.59    \nframe=    9 fps=0.7 q=51.0 size=       0KiB time=00:00:00.14 bitrate=   2.5kbits/s speed=0.0107x elapsed=0:00:13.11    \nframe=    9 fps=0.7 q=51.0 size=       0KiB time=00:00:00.14 bitrate=   2.5kbits/s speed=0.0103x elapsed=0:00:13.62    \nframe=    9 fps=0.6 q=51.0 size=       0KiB time=00:00:00.14 bitrate=   2.5kbits/s speed=0.0099x elapsed=0:00:14.14    \nframe=   10 fps=0.7 q=51.0 size=       0KiB time=00:00:00.16 bitrate=   2.2kbits/s speed=0.0109x elapsed=0:00:14.66    \nframe=   10 fps=0.7 q=51.0 size=       0KiB time=00:00:00.16 bitrate=   2.2kbits/s speed=0.0105x elapsed=0:00:15.18    \nframe=   10 fps=0.6 q=51.0 size=       0KiB time=00:00:00.16 bitrate=   2.2kbits/s speed=0.0102x elapsed=0:00:15.70    \nframe=   11 fps=0.7 q=51.0 size=       0KiB time=00:00:00.18 bitrate=   2.0kbits/s speed=0.0111x elapsed=0:00:16.21    \nframe=   12 fps=0.7 q=47.8 size=       0KiB time=00:00:00.20 bitrate=   1.8kbits/s speed=0.012x elapsed=0:00:16.73    \nframe=   13 fps=0.8 q=49.0 size=       0KiB time=00:00:00.22 bitrate=   1.6kbits/s speed=0.0127x elapsed=0:00:17.25    \nframe=   14 fps=0.8 q=50.0 size=       0KiB time=00:00:00.24 bitrate=   1.5kbits/s speed=0.0135x elapsed=0:00:17.75    \nframe=   14 fps=0.8 q=50.0 size=       0KiB time=00:00:00.24 bitrate=   1.5kbits/s speed=0.0131x elapsed=0:00:18.27    \nframe=   14 fps=0.7 q=50.0 size=       0KiB time=00:00:00.24 bitrate=   1.5kbits/s speed=0.0128x elapsed=0:00:18.80    \nframe=   14 fps=0.7 q=50.0 size=       0KiB time=00:00:00.24 bitrate=   1.5kbits/s speed=0.0124x elapsed=0:00:19.32    \nframe=   14 fps=0.7 q=50.0 size=       0KiB time=00:00:00.24 bitrate=   1.5kbits/s speed=0.0121x elapsed=0:00:19.84    \nframe=   14 fps=0.7 q=50.0 size=       0KiB time=00:00:00.24 bitrate=   1.5kbits/s speed=0.0118x elapsed=0:00:20.38    \nframe=   14 fps=0.7 q=50.0 size=       0KiB time=00:00:00.24 bitrate=   1.5kbits/s speed=0.0115x elapsed=0:00:20.90    \nframe=   15 fps=0.7 q=46.7 size=       0KiB time=00:00:00.26 bitrate=   1.4kbits/s speed=0.0121x elapsed=0:00:21.42    \nframe=   15 fps=0.7 q=46.7 size=       0KiB time=00:00:00.26 bitrate=   1.4kbits/s speed=0.0118x elapsed=0:00:21.96    \nframe=   16 fps=0.7 q=46.3 size=       0KiB time=00:00:00.28 bitrate=   1.3kbits/s speed=0.0124x elapsed=0:00:22.49    \nframe=   16 fps=0.7 q=46.3 size=       0KiB time=00:00:00.28 bitrate=   1.3kbits/s speed=0.0122x elapsed=0:00:23.03    \nframe=   16 fps=0.7 q=46.3 size=       0KiB time=00:00:00.28 bitrate=   1.3kbits/s speed=0.0119x elapsed=0:00:23.58    \nframe=   16 fps=0.7 q=46.3 size=       0KiB time=00:00:00.28 bitrate=   1.3kbits/s speed=0.0116x elapsed=0:00:24.23    \nframe=   16 fps=0.6 q=46.3 size=       0KiB time=00:00:00.28 bitrate=   1.3kbits/s speed=0.0113x elapsed=0:00:24.74    \nframe=   17 fps=0.7 q=44.4 size=       0KiB time=00:00:00.30 bitrate=   1.2kbits/s speed=0.0119x elapsed=0:00:25.28    \nframe=   17 fps=0.7 q=44.4 size=       0KiB time=00:00:00.30 bitrate=   1.2kbits/s speed=0.0116x elapsed=0:00:25.83    \nframe=   17 fps=0.6 q=44.4 size=       0KiB time=00:00:00.30 bitrate=   1.2kbits/s speed=0.0114x elapsed=0:00:26.34    \nframe=   17 fps=0.6 q=44.4 size=       0KiB time=00:00:00.30 bitrate=   1.2kbits/s speed=0.0111x elapsed=0:00:26.90    \nframe=   17 fps=0.6 q=44.4 size=       0KiB time=00:00:00.30 bitrate=   1.2kbits/s speed=0.0109x elapsed=0:00:27.42    \nframe=   17 fps=0.6 q=44.4 size=       0KiB time=00:00:00.30 bitrate=   1.2kbits/s speed=0.0107x elapsed=0:00:27.96    \nframe=   18 fps=0.6 q=45.4 size=       0KiB time=00:00:00.32 bitrate=   1.1kbits/s speed=0.0112x elapsed=0:00:28.48    \nframe=   18 fps=0.6 q=45.4 size=       0KiB time=00:00:00.32 bitrate=   1.1kbits/s speed=0.011x elapsed=0:00:29.00    \nframe=   19 fps=0.6 q=45.5 size=       0KiB time=00:00:00.34 bitrate=   1.0kbits/s speed=0.0115x elapsed=0:00:29.54    \nframe=   19 fps=0.6 q=45.5 size=       0KiB time=00:00:00.34 bitrate=   1.0kbits/s speed=0.0113x elapsed=0:00:30.06    \nframe=   19 fps=0.6 q=45.5 size=       0KiB time=00:00:00.34 bitrate=   1.0kbits/s speed=0.0111x elapsed=0:00:30.61    \nframe=   19 fps=0.6 q=45.5 size=       0KiB time=00:00:00.34 bitrate=   1.0kbits/s speed=0.0109x elapsed=0:00:31.14    \nframe=   19 fps=0.6 q=45.5 size=       0KiB time=00:00:00.34 bitrate=   1.0kbits/s speed=0.0107x elapsed=0:00:31.69    \nframe=   19 fps=0.6 q=45.5 size=       0KiB time=00:00:00.34 bitrate=   1.0kbits/s speed=0.0105x elapsed=0:00:32.26    \nframe=   19 fps=0.6 q=45.5 size=       0KiB time=00:00:00.34 bitrate=   1.0kbits/s speed=0.0104x elapsed=0:00:32.78    \nframe=   20 fps=0.6 q=47.0 size=       0KiB time=00:00:00.36 bitrate=   1.0kbits/s speed=0.0108x elapsed=0:00:33.35    \nframe=   21 fps=0.6 q=47.0 size=       0KiB time=00:00:00.38 bitrate=   0.9kbits/s speed=0.0112x elapsed=0:00:33.87    \nframe=   21 fps=0.6 q=47.0 size=       0KiB time=00:00:00.38 bitrate=   0.9kbits/s speed=0.011x elapsed=0:00:34.42    \nframe=   21 fps=0.6 q=47.0 size=       0KiB time=00:00:00.38 bitrate=   0.9kbits/s speed=0.0109x elapsed=0:00:34.93    \nframe=   22 fps=0.6 q=42.4 size=       0KiB time=00:00:00.40 bitrate=   0.9kbits/s speed=0.0113x elapsed=0:00:35.50    \nframe=   24 fps=0.7 q=51.0 size=       0KiB time=00:00:00.44 bitrate=   0.8kbits/s speed=0.0122x elapsed=0:00:36.02    \nframe=   24 fps=0.7 q=51.0 size=       0KiB time=00:00:00.44 bitrate=   0.8kbits/s speed=0.012x elapsed=0:00:36.54    \nframe=   24 fps=0.6 q=51.0 size=       0KiB time=00:00:00.44 bitrate=   0.8kbits/s speed=0.0119x elapsed=0:00:37.06    \nframe=   24 fps=0.6 q=51.0 size=       0KiB time=00:00:00.44 bitrate=   0.8kbits/s speed=0.0117x elapsed=0:00:37.58    \nframe=   25 fps=0.7 q=51.0 size=       0KiB time=00:00:00.46 bitrate=   0.8kbits/s speed=0.0121x elapsed=0:00:38.13    \nframe=   26 fps=0.7 q=51.0 size=       0KiB time=00:00:00.48 bitrate=   0.7kbits/s speed=0.0124x elapsed=0:00:38.65    \nframe=   27 fps=0.7 q=45.5 size=       0KiB time=00:00:00.50 bitrate=   0.7kbits/s speed=0.0128x elapsed=0:00:39.19    \nframe=   28 fps=0.7 q=51.0 size=       0KiB time=00:00:00.52 bitrate=   0.7kbits/s speed=0.0131x elapsed=0:00:39.72    \nframe=   28 fps=0.7 q=51.0 size=       0KiB time=00:00:00.52 bitrate=   0.7kbits/s speed=0.0129x elapsed=0:00:40.24    \nframe=   28 fps=0.7 q=51.0 size=       0KiB time=00:00:00.52 bitrate=   0.7kbits/s speed=0.0128x elapsed=0:00:40.76    \nframe=   28 fps=0.7 q=51.0 size=       0KiB time=00:00:00.52 bitrate=   0.7kbits/s speed=0.0126x elapsed=0:00:41.27    \nframe=   28 fps=0.7 q=51.0 size=       0KiB time=00:00:00.52 bitrate=   0.7kbits/s speed=0.0124x elapsed=0:00:41.79    \nframe=   28 fps=0.7 q=51.0 size=       0KiB time=00:00:00.52 bitrate=   0.7kbits/s speed=0.0123x elapsed=0:00:42.36    \nframe=   29 fps=0.7 q=51.0 size=       0KiB time=00:00:00.54 bitrate=   0.7kbits/s speed=0.0126x elapsed=0:00:42.90    \nframe=   30 fps=0.7 q=51.0 size=       0KiB time=00:00:00.56 bitrate=   0.6kbits/s speed=0.0129x elapsed=0:00:43.45    \nframe=   30 fps=0.7 q=51.0 size=       0KiB time=00:00:00.56 bitrate=   0.6kbits/s speed=0.0127x elapsed=0:00:43.99    \nframe=   30 fps=0.7 q=51.0 size=       0KiB time=00:00:00.56 bitrate=   0.6kbits/s speed=0.0126x elapsed=0:00:44.51    \nframe=   31 fps=0.7 q=51.0 size=       0KiB time=00:00:00.58 bitrate=   0.6kbits/s speed=0.0129x elapsed=0:00:45.03    \nframe=   31 fps=0.7 q=51.0 size=       0KiB time=00:00:00.58 bitrate=   0.6kbits/s speed=0.0127x elapsed=0:00:45.55    \nframe=   31 fps=0.7 q=51.0 size=       0KiB time=00:00:00.58 bitrate=   0.6kbits/s speed=0.0126x elapsed=0:00:46.09    \nframe=   31 fps=0.7 q=51.0 size=       0KiB time=00:00:00.58 bitrate=   0.6kbits/s speed=0.0124x elapsed=0:00:46.61    \nframe=   31 fps=0.7 q=51.0 size=       0KiB time=00:00:00.58 bitrate=   0.6kbits/s speed=0.0123x elapsed=0:00:47.18    \nframe=   31 fps=0.6 q=51.0 size=       0KiB time=00:00:00.58 bitrate=   0.6kbits/s speed=0.0122x elapsed=0:00:47.70    \nframe=   31 fps=0.6 q=51.0 size=       0KiB time=00:00:00.58 bitrate=   0.6kbits/s speed=0.012x elapsed=0:00:48.29    \nframe=   32 fps=0.7 q=45.5 size=       0KiB time=00:00:00.60 bitrate=   0.6kbits/s speed=0.0123x elapsed=0:00:48.83    \nframe=   33 fps=0.7 q=50.0 size=       0KiB time=00:00:00.62 bitrate=   0.6kbits/s speed=0.0126x elapsed=0:00:49.35    \nframe=   33 fps=0.7 q=50.0 size=       0KiB time=00:00:00.62 bitrate=   0.6kbits/s speed=0.0124x elapsed=0:00:49.90    \nframe=   33 fps=0.7 q=50.0 size=       0KiB time=00:00:00.62 bitrate=   0.6kbits/s speed=0.0123x elapsed=0:00:50.42    \nframe=   35 fps=0.7 q=41.2 size=       0KiB time=00:00:00.66 bitrate=   0.5kbits/s speed=0.013x elapsed=0:00:50.95    \nframe=   36 fps=0.7 q=48.9 size=       0KiB time=00:00:00.68 bitrate=   0.5kbits/s speed=0.0132x elapsed=0:00:51.46    \nframe=   36 fps=0.7 q=48.9 size=       0KiB time=00:00:00.68 bitrate=   0.5kbits/s speed=0.0131x elapsed=0:00:51.99    \nframe=   37 fps=0.7 q=48.0 size=       0KiB time=00:00:00.70 bitrate=   0.5kbits/s speed=0.0133x elapsed=0:00:52.52    \nframe=   37 fps=0.7 q=48.0 size=       0KiB time=00:00:00.70 bitrate=   0.5kbits/s speed=0.0132x elapsed=0:00:53.04    \nframe=   37 fps=0.7 q=48.0 size=       0KiB time=00:00:00.70 bitrate=   0.5kbits/s speed=0.0131x elapsed=0:00:53.58    \nframe=   37 fps=0.7 q=48.0 size=       0KiB time=00:00:00.70 bitrate=   0.5kbits/s speed=0.0129x elapsed=0:00:54.10    \nframe=   37 fps=0.7 q=48.0 size=       0KiB time=00:00:00.70 bitrate=   0.5kbits/s speed=0.0128x elapsed=0:00:54.62    \nframe=   38 fps=0.7 q=49.0 size=       0KiB time=00:00:00.72 bitrate=   0.5kbits/s speed=0.0131x elapsed=0:00:55.13    \nframe=   39 fps=0.7 q=49.0 size=       0KiB time=00:00:00.74 bitrate=   0.5kbits/s speed=0.0133x elapsed=0:00:55.70    \nframe=   40 fps=0.7 q=42.8 size=       0KiB time=00:00:00.76 bitrate=   0.5kbits/s speed=0.0135x elapsed=0:00:56.27    \nframe=   40 fps=0.7 q=42.8 size=       0KiB time=00:00:00.76 bitrate=   0.5kbits/s speed=0.0134x elapsed=0:00:56.82    \nframe=   40 fps=0.7 q=42.8 size=       0KiB time=00:00:00.76 bitrate=   0.5kbits/s speed=0.0133x elapsed=0:00:57.35    \nframe=   40 fps=0.7 q=42.8 size=       0KiB time=00:00:00.76 bitrate=   0.5kbits/s speed=0.0131x elapsed=0:00:57.87    \nframe=   41 fps=0.7 q=48.0 size=       0KiB time=00:00:00.78 bitrate=   0.5kbits/s speed=0.0134x elapsed=0:00:58.39    \nframe=   41 fps=0.7 q=48.0 size=       0KiB time=00:00:00.78 bitrate=   0.5kbits/s speed=0.0132x elapsed=0:00:58.93    \nframe=   41 fps=0.7 q=48.0 size=       0KiB time=00:00:00.78 bitrate=   0.5kbits/s speed=0.0131x elapsed=0:00:59.47    \nframe=   41 fps=0.7 q=48.0 size=       0KiB time=00:00:00.78 bitrate=   0.5kbits/s speed=0.013x elapsed=0:00:59.97    \nframe=   41 fps=0.7 q=48.0 size=       0KiB time=00:00:00.78 bitrate=   0.5kbits/s speed=0.0129x elapsed=0:01:00.53    \nframe=   41 fps=0.7 q=48.0 size=       0KiB time=00:00:00.78 bitrate=   0.5kbits/s speed=0.0128x elapsed=0:01:01.07    \nframe=   41 fps=0.7 q=48.0 size=       0KiB time=00:00:00.78 bitrate=   0.5kbits/s speed=0.0127x elapsed=0:01:01.58    \nframe=   41 fps=0.7 q=48.0 size=       0KiB time=00:00:00.78 bitrate=   0.5kbits/s speed=0.0126x elapsed=0:01:02.12    \nframe=   41 fps=0.7 q=48.0 size=       0KiB time=00:00:00.78 bitrate=   0.5kbits/s speed=0.0124x elapsed=0:01:02.65    \nframe=   42 fps=0.7 q=49.0 size=       0KiB time=00:00:00.80 bitrate=   0.4kbits/s speed=0.0127x elapsed=0:01:03.18    \nframe=   43 fps=0.7 q=48.0 size=       0KiB time=00:00:00.82 bitrate=   0.4kbits/s speed=0.0129x elapsed=0:01:03.71    \nframe=   43 fps=0.7 q=48.0 size=       0KiB time=00:00:00.82 bitrate=   0.4kbits/s speed=0.0128x elapsed=0:01:04.25    \nframe=   44 fps=0.7 q=48.0 size=       0KiB time=00:00:00.84 bitrate=   0.4kbits/s speed=0.013x elapsed=0:01:04.77    \nframe=   44 fps=0.7 q=48.0 size=       0KiB time=00:00:00.84 bitrate=   0.4kbits/s speed=0.0129x elapsed=0:01:05.32    \nframe=   44 fps=0.7 q=48.0 size=       0KiB time=00:00:00.84 bitrate=   0.4kbits/s speed=0.0128x elapsed=0:01:05.84    \nframe=   44 fps=0.7 q=48.0 size=       0KiB time=00:00:00.84 bitrate=   0.4kbits/s speed=0.0127x elapsed=0:01:06.35    \nframe=   45 fps=0.7 q=40.5 size=       0KiB time=00:00:00.86 bitrate=   0.4kbits/s speed=0.0129x elapsed=0:01:06.87    \nframe=   46 fps=0.7 q=48.0 size=       0KiB time=00:00:00.88 bitrate=   0.4kbits/s speed=0.0131x elapsed=0:01:07.39    \nframe=   46 fps=0.7 q=48.0 size=       0KiB time=00:00:00.88 bitrate=   0.4kbits/s speed=0.013x elapsed=0:01:07.93    \nframe=   46 fps=0.7 q=48.0 size=       0KiB time=00:00:00.88 bitrate=   0.4kbits/s speed=0.0129x elapsed=0:01:08.45    \nframe=   48 fps=0.7 q=47.0 size=       0KiB time=00:00:00.92 bitrate=   0.4kbits/s speed=0.0133x elapsed=0:01:08.96    \nframe=   49 fps=0.7 q=39.6 size=       0KiB time=00:00:00.94 bitrate=   0.4kbits/s speed=0.0135x elapsed=0:01:09.48    \nframe=   49 fps=0.7 q=39.6 size=       0KiB time=00:00:00.94 bitrate=   0.4kbits/s speed=0.0134x elapsed=0:01:10.00    \nframe=   51 fps=0.7 q=47.0 size=       0KiB time=00:00:00.98 bitrate=   0.4kbits/s speed=0.0139x elapsed=0:01:10.52    \nframe=   51 fps=0.7 q=47.0 size=       0KiB time=00:00:00.98 bitrate=   0.4kbits/s speed=0.0138x elapsed=0:01:11.04    \nframe=   51 fps=0.7 q=47.0 size=       0KiB time=00:00:00.98 bitrate=   0.4kbits/s speed=0.0137x elapsed=0:01:11.57    \nframe=   52 fps=0.7 q=48.0 size=       0KiB time=00:00:01.00 bitrate=   0.4kbits/s speed=0.0139x elapsed=0:01:12.11    \nframe=   52 fps=0.7 q=48.0 size=       0KiB time=00:00:01.00 bitrate=   0.4kbits/s speed=0.0138x elapsed=0:01:12.64    \nframe=   52 fps=0.7 q=48.0 size=       0KiB time=00:00:01.00 bitrate=   0.4kbits/s speed=0.0137x elapsed=0:01:13.19    \nframe=   52 fps=0.7 q=48.0 size=       0KiB time=00:00:01.00 bitrate=   0.4kbits/s speed=0.0136x elapsed=0:01:13.78    \nframe=   52 fps=0.7 q=48.0 size=       0KiB time=00:00:01.00 bitrate=   0.4kbits/s speed=0.0135x elapsed=0:01:14.34    \nframe=   53 fps=0.7 q=48.0 size=       0KiB time=00:00:01.02 bitrate=   0.3kbits/s speed=0.0136x elapsed=0:01:14.88    \nframe=   53 fps=0.7 q=48.0 size=       0KiB time=00:00:01.02 bitrate=   0.3kbits/s speed=0.0135x elapsed=0:01:15.43    \nframe=   53 fps=0.7 q=48.0 size=       0KiB time=00:00:01.02 bitrate=   0.3kbits/s speed=0.0134x elapsed=0:01:15.98    \nframe=   54 fps=0.7 q=40.5 size=       0KiB time=00:00:01.04 bitrate=   0.3kbits/s speed=0.0136x elapsed=0:01:16.57    \nframe=   55 fps=0.7 q=47.0 size=       0KiB time=00:00:01.06 bitrate=   0.3kbits/s speed=0.0137x elapsed=0:01:17.14    \nframe=   56 fps=0.7 q=48.0 size=       0KiB time=00:00:01.08 bitrate=   0.3kbits/s speed=0.0139x elapsed=0:01:17.64    \nframe=   58 fps=0.7 q=47.0 size=       0KiB time=00:00:01.12 bitrate=   0.3kbits/s speed=0.0143x elapsed=0:01:18.17    \nframe=   58 fps=0.7 q=47.0 size=       0KiB time=00:00:01.12 bitrate=   0.3kbits/s speed=0.0142x elapsed=0:01:18.70    \nframe=   59 fps=0.7 q=39.2 size=       0KiB time=00:00:01.12 bitrate=   0.3kbits/s speed=0.0141x elapsed=0:01:19.21    \nframe=   59 fps=0.7 q=39.2 size=       0KiB time=00:00:01.14 bitrate=   0.3kbits/s speed=0.0143x elapsed=0:01:19.76    \nframe=   59 fps=0.7 q=39.2 size=       0KiB time=00:00:01.14 bitrate=   0.3kbits/s speed=0.0142x elapsed=0:01:20.29    \nframe=   60 fps=0.7 q=47.0 size=       0KiB time=00:00:01.16 bitrate=   0.3kbits/s speed=0.0144x elapsed=0:01:20.81    \nframe=   61 fps=0.8 q=47.0 size=       0KiB time=00:00:01.18 bitrate=   0.3kbits/s speed=0.0145x elapsed=0:01:21.33    \nframe=   61 fps=0.7 q=47.0 size=       0KiB time=00:00:01.18 bitrate=   0.3kbits/s speed=0.0144x elapsed=0:01:21.85    \nframe=   61 fps=0.7 q=47.0 size=       0KiB time=00:00:01.18 bitrate=   0.3kbits/s speed=0.0143x elapsed=0:01:22.37    \nframe=   61 fps=0.7 q=47.0 size=       0KiB time=00:00:01.18 bitrate=   0.3kbits/s speed=0.0142x elapsed=0:01:22.91    \nframe=   63 fps=0.8 q=46.0 size=       0KiB time=00:00:01.22 bitrate=   0.3kbits/s speed=0.0146x elapsed=0:01:23.44    \nframe=   63 fps=0.8 q=46.0 size=       0KiB time=00:00:01.22 bitrate=   0.3kbits/s speed=0.0145x elapsed=0:01:23.96    \nframe=   63 fps=0.7 q=46.0 size=       0KiB time=00:00:01.22 bitrate=   0.3kbits/s speed=0.0144x elapsed=0:01:24.50    \nframe=   63 fps=0.7 q=46.0 size=       0KiB time=00:00:01.22 bitrate=   0.3kbits/s speed=0.0143x elapsed=0:01:25.09    \nframe=   65 fps=0.8 q=46.0 size=       0KiB time=00:00:01.24 bitrate=   0.3kbits/s speed=0.0145x elapsed=0:01:25.62    \nframe=   65 fps=0.8 q=46.0 size=       0KiB time=00:00:01.26 bitrate=   0.3kbits/s speed=0.0146x elapsed=0:01:26.16    \nframe=   65 fps=0.7 q=46.0 size=       0KiB time=00:00:01.26 bitrate=   0.3kbits/s speed=0.0145x elapsed=0:01:26.70    \nframe=   65 fps=0.7 q=46.0 size=       0KiB time=00:00:01.26 bitrate=   0.3kbits/s speed=0.0144x elapsed=0:01:27.24    \nframe=   66 fps=0.8 q=47.0 size=       0KiB time=00:00:01.28 bitrate=   0.3kbits/s speed=0.0146x elapsed=0:01:27.79    \nframe=   66 fps=0.7 q=47.0 size=       0KiB time=00:00:01.28 bitrate=   0.3kbits/s speed=0.0145x elapsed=0:01:28.31    \nframe=   67 fps=0.8 q=46.0 size=       0KiB time=00:00:01.30 bitrate=   0.3kbits/s speed=0.0146x elapsed=0:01:28.82    \nframe=   67 fps=0.7 q=46.0 size=       0KiB time=00:00:01.30 bitrate=   0.3kbits/s speed=0.0145x elapsed=0:01:29.36    \nframe=   68 fps=0.8 q=46.0 size=       0KiB time=00:00:01.32 bitrate=   0.3kbits/s speed=0.0147x elapsed=0:01:29.91    \nframe=   68 fps=0.8 q=46.0 size=       0KiB time=00:00:01.32 bitrate=   0.3kbits/s speed=0.0146x elapsed=0:01:30.43    \nframe=   68 fps=0.7 q=46.0 size=       0KiB time=00:00:01.32 bitrate=   0.3kbits/s speed=0.0145x elapsed=0:01:30.95    \nframe=   68 fps=0.7 q=46.0 size=       0KiB time=00:00:01.32 bitrate=   0.3kbits/s speed=0.0144x elapsed=0:01:31.54    \nframe=   68 fps=0.7 q=46.0 size=       0KiB time=00:00:01.32 bitrate=   0.3kbits/s speed=0.0143x elapsed=0:01:32.06    \nframe=   69 fps=0.7 q=38.0 size=       0KiB time=00:00:01.34 bitrate=   0.3kbits/s speed=0.0145x elapsed=0:01:32.57    \nframe=   69 fps=0.7 q=38.0 size=       0KiB time=00:00:01.34 bitrate=   0.3kbits/s speed=0.0144x elapsed=0:01:33.09    \nframe=   69 fps=0.7 q=38.0 size=       0KiB time=00:00:01.34 bitrate=   0.3kbits/s speed=0.0143x elapsed=0:01:33.61    \nframe=   70 fps=0.7 q=45.0 size=       0KiB time=00:00:01.36 bitrate=   0.3kbits/s speed=0.0144x elapsed=0:01:34.19    \nframe=   71 fps=0.7 q=46.0 size=       0KiB time=00:00:01.38 bitrate=   0.3kbits/s speed=0.0146x elapsed=0:01:34.72    \nframe=   71 fps=0.7 q=46.0 size=       0KiB time=00:00:01.38 bitrate=   0.3kbits/s speed=0.0145x elapsed=0:01:35.22    \nframe=   71 fps=0.7 q=46.0 size=       0KiB time=00:00:01.38 bitrate=   0.3kbits/s speed=0.0144x elapsed=0:01:35.76    \nframe=   71 fps=0.7 q=46.0 size=       0KiB time=00:00:01.38 bitrate=   0.3kbits/s speed=0.0143x elapsed=0:01:36.33    \nframe=   72 fps=0.7 q=46.0 size=       0KiB time=00:00:01.40 bitrate=   0.3kbits/s speed=0.0145x elapsed=0:01:36.85    \nframe=   72 fps=0.7 q=46.0 size=       0KiB time=00:00:01.40 bitrate=   0.3kbits/s speed=0.0144x elapsed=0:01:37.38    \nframe=   72 fps=0.7 q=46.0 size=       0KiB time=00:00:01.40 bitrate=   0.3kbits/s speed=0.0143x elapsed=0:01:37.88    \nframe=   72 fps=0.7 q=46.0 size=       0KiB time=00:00:01.40 bitrate=   0.3kbits/s speed=0.0142x elapsed=0:01:38.43    \nframe=   73 fps=0.7 q=46.0 size=       0KiB time=00:00:01.42 bitrate=   0.2kbits/s speed=0.0143x elapsed=0:01:38.96    \nframe=   73 fps=0.7 q=46.0 size=       0KiB time=00:00:01.42 bitrate=   0.2kbits/s speed=0.0143x elapsed=0:01:39.48    \nframe=   73 fps=0.7 q=46.0 size=       0KiB time=00:00:01.42 bitrate=   0.2kbits/s speed=0.0142x elapsed=0:01:40.00    \nframe=   73 fps=0.7 q=46.0 size=       0KiB time=00:00:01.42 bitrate=   0.2kbits/s speed=0.0141x elapsed=0:01:40.52    \nframe=   74 fps=0.7 q=38.3 size=       0KiB time=00:00:01.44 bitrate=   0.2kbits/s speed=0.0143x elapsed=0:01:41.04    \nframe=   74 fps=0.7 q=38.3 size=       0KiB time=00:00:01.44 bitrate=   0.2kbits/s speed=0.0142x elapsed=0:01:41.58    \nframe=   75 fps=0.7 q=45.0 size=       0KiB time=00:00:01.46 bitrate=   0.2kbits/s speed=0.0143x elapsed=0:01:42.10    \nframe=   76 fps=0.7 q=46.0 size=       0KiB time=00:00:01.48 bitrate=   0.2kbits/s speed=0.0144x elapsed=0:01:42.64    \nframe=   77 fps=0.7 q=45.0 size=       0KiB time=00:00:01.50 bitrate=   0.2kbits/s speed=0.0145x elapsed=0:01:43.14    \nframe=   77 fps=0.7 q=45.0 size=       0KiB time=00:00:01.50 bitrate=   0.2kbits/s speed=0.0145x elapsed=0:01:43.67    \nframe=   77 fps=0.7 q=45.0 size=       0KiB time=00:00:01.50 bitrate=   0.2kbits/s speed=0.0144x elapsed=0:01:44.19    \nframe=   77 fps=0.7 q=45.0 size=       0KiB time=00:00:01.50 bitrate=   0.2kbits/s speed=0.0143x elapsed=0:01:44.71    \nframe=   77 fps=0.7 q=45.0 size=       0KiB time=00:00:01.50 bitrate=   0.2kbits/s speed=0.0143x elapsed=0:01:45.23    \nframe=   77 fps=0.7 q=45.0 size=       0KiB time=00:00:01.50 bitrate=   0.2kbits/s speed=0.0142x elapsed=0:01:45.80    \nframe=   78 fps=0.7 q=45.0 size=       0KiB time=00:00:01.52 bitrate=   0.2kbits/s speed=0.0143x elapsed=0:01:46.33    \nframe=   78 fps=0.7 q=45.0 size=       0KiB time=00:00:01.52 bitrate=   0.2kbits/s speed=0.0142x elapsed=0:01:46.83    \nframe=   79 fps=0.7 q=38.0 size=       0KiB time=00:00:01.54 bitrate=   0.2kbits/s speed=0.0143x elapsed=0:01:47.35    \nframe=   80 fps=0.7 q=44.0 size=       0KiB time=00:00:01.56 bitrate=   0.2kbits/s speed=0.0145x elapsed=0:01:47.88    \nframe=   81 fps=0.7 q=46.0 size=       0KiB time=00:00:01.58 bitrate=   0.2kbits/s speed=0.0146x elapsed=0:01:48.38    \nframe=   82 fps=0.8 q=45.0 size=       0KiB time=00:00:01.60 bitrate=   0.2kbits/s speed=0.0147x elapsed=0:01:48.91    \nframe=   84 fps=0.8 q=38.1 size=       0KiB time=00:00:01.64 bitrate=   0.2kbits/s speed=0.015x elapsed=0:01:49.43    \nframe=   86 fps=0.8 q=46.0 size=       0KiB time=00:00:01.68 bitrate=   0.2kbits/s speed=0.0153x elapsed=0:01:49.95    \nframe=   87 fps=0.8 q=45.0 size=       0KiB time=00:00:01.70 bitrate=   0.2kbits/s speed=0.0154x elapsed=0:01:50.46    \nframe=   87 fps=0.8 q=45.0 size=       0KiB time=00:00:01.70 bitrate=   0.2kbits/s speed=0.0153x elapsed=0:01:51.05    \nframe=   87 fps=0.8 q=45.0 size=       0KiB time=00:00:01.70 bitrate=   0.2kbits/s speed=0.0152x elapsed=0:01:51.58    \nframe=   87 fps=0.8 q=45.0 size=       0KiB time=00:00:01.70 bitrate=   0.2kbits/s speed=0.0152x elapsed=0:01:52.14    \nframe=   87 fps=0.8 q=45.0 size=       0KiB time=00:00:01.70 bitrate=   0.2kbits/s speed=0.0151x elapsed=0:01:52.65    \nframe=   87 fps=0.8 q=45.0 size=       0KiB time=00:00:01.70 bitrate=   0.2kbits/s speed=0.015x elapsed=0:01:53.20    \nframe=   87 fps=0.8 q=45.0 size=       0KiB time=00:00:01.70 bitrate=   0.2kbits/s speed=0.0149x elapsed=0:01:53.79    \nframe=   87 fps=0.8 q=45.0 size=       0KiB time=00:00:01.70 bitrate=   0.2kbits/s speed=0.0149x elapsed=0:01:54.35    \nframe=   87 fps=0.8 q=45.0 size=       0KiB time=00:00:01.70 bitrate=   0.2kbits/s speed=0.0148x elapsed=0:01:54.91    \nframe=   87 fps=0.8 q=45.0 size=       0KiB time=00:00:01.70 bitrate=   0.2kbits/s speed=0.0147x elapsed=0:01:55.43    \nframe=   88 fps=0.8 q=46.0 size=       0KiB time=00:00:01.72 bitrate=   0.2kbits/s speed=0.0148x elapsed=0:01:55.95    \nframe=   88 fps=0.8 q=46.0 size=       0KiB time=00:00:01.72 bitrate=   0.2kbits/s speed=0.0148x elapsed=0:01:56.47    \nframe=   88 fps=0.8 q=46.0 size=       0KiB time=00:00:01.72 bitrate=   0.2kbits/s speed=0.0147x elapsed=0:01:57.01    \nframe=   89 fps=0.8 q=39.6 size=       0KiB time=00:00:01.74 bitrate=   0.2kbits/s speed=0.0148x elapsed=0:01:57.54    \nframe=   89 fps=0.8 q=39.6 size=       0KiB time=00:00:01.74 bitrate=   0.2kbits/s speed=0.0147x elapsed=0:01:58.06    \nframe=   89 fps=0.8 q=39.6 size=       0KiB time=00:00:01.74 bitrate=   0.2kbits/s speed=0.0147x elapsed=0:01:58.58    \nframe=   90 fps=0.8 q=45.0 size=       0KiB time=00:00:01.76 bitrate=   0.2kbits/s speed=0.0148x elapsed=0:01:59.08    \nframe=   91 fps=0.8 q=46.0 size=       0KiB time=00:00:01.78 bitrate=   0.2kbits/s speed=0.0149x elapsed=0:01:59.60    \nframe=   91 fps=0.8 q=46.0 size=       0KiB time=00:00:01.78 bitrate=   0.2kbits/s speed=0.0148x elapsed=0:02:00.13    \nframe=   91 fps=0.8 q=46.0 size=       0KiB time=00:00:01.78 bitrate=   0.2kbits/s speed=0.0148x elapsed=0:02:00.64    \nframe=   93 fps=0.8 q=37.6 size=       0KiB time=00:00:01.82 bitrate=   0.2kbits/s speed=0.015x elapsed=0:02:01.17    \nframe=   93 fps=0.8 q=37.6 size=       0KiB time=00:00:01.82 bitrate=   0.2kbits/s speed=0.015x elapsed=0:02:01.68    \nframe=   94 fps=0.8 q=44.0 size=       0KiB time=00:00:01.84 bitrate=   0.2kbits/s speed=0.0151x elapsed=0:02:02.24    \nframe=   94 fps=0.8 q=44.0 size=       0KiB time=00:00:01.84 bitrate=   0.2kbits/s speed=0.015x elapsed=0:02:02.76    \nframe=   95 fps=0.8 q=45.0 size=       0KiB time=00:00:01.86 bitrate=   0.2kbits/s speed=0.0151x elapsed=0:02:03.28    \nframe=   96 fps=0.8 q=38.0 size=       0KiB time=00:00:01.88 bitrate=   0.2kbits/s speed=0.0152x elapsed=0:02:03.79    \nframe=   98 fps=0.8 q=45.0 size=       0KiB time=00:00:01.92 bitrate=   0.2kbits/s speed=0.0154x elapsed=0:02:04.31    \nframe=   98 fps=0.8 q=45.0 size=       0KiB time=00:00:01.92 bitrate=   0.2kbits/s speed=0.0154x elapsed=0:02:04.84    \nframe=  100 fps=0.8 q=45.0 size=       0KiB time=00:00:01.96 bitrate=   0.2kbits/s speed=0.0156x elapsed=0:02:05.38    \nframe=  101 fps=0.8 q=37.9 size=       0KiB time=00:00:01.98 bitrate=   0.2kbits/s speed=0.0157x elapsed=0:02:05.93    \nframe=  102 fps=0.8 q=43.7 size=       0KiB time=00:00:02.00 bitrate=   0.2kbits/s speed=0.0158x elapsed=0:02:06.47    \nframe=  102 fps=0.8 q=43.7 size=       0KiB time=00:00:02.00 bitrate=   0.2kbits/s speed=0.0157x elapsed=0:02:06.99    \nframe=  102 fps=0.8 q=43.7 size=       0KiB time=00:00:02.00 bitrate=   0.2kbits/s speed=0.0157x elapsed=0:02:07.53    \nframe=  104 fps=0.8 q=45.0 size=       0KiB time=00:00:02.04 bitrate=   0.2kbits/s speed=0.0159x elapsed=0:02:08.05    \nframe=  104 fps=0.8 q=45.0 size=       0KiB time=00:00:02.04 bitrate=   0.2kbits/s speed=0.0159x elapsed=0:02:08.60    \nframe=  105 fps=0.8 q=45.0 size=       0KiB time=00:00:02.06 bitrate=   0.2kbits/s speed=0.016x elapsed=0:02:09.12    \nframe=  106 fps=0.8 q=37.6 size=       0KiB time=00:00:02.08 bitrate=   0.2kbits/s speed=0.016x elapsed=0:02:09.64    \nframe=  106 fps=0.8 q=37.6 size=       0KiB time=00:00:02.08 bitrate=   0.2kbits/s speed=0.016x elapsed=0:02:10.18    \nframe=  108 fps=0.8 q=45.0 size=       0KiB time=00:00:02.12 bitrate=   0.2kbits/s speed=0.0162x elapsed=0:02:10.72    \nframe=  110 fps=0.8 q=45.0 size=       0KiB time=00:00:02.16 bitrate=   0.2kbits/s speed=0.0165x elapsed=0:02:11.24    \nframe=  112 fps=0.8 q=44.8 size=       0KiB time=00:00:02.20 bitrate=   0.2kbits/s speed=0.0167x elapsed=0:02:11.79    \nframe=  112 fps=0.8 q=44.8 size=       0KiB time=00:00:02.20 bitrate=   0.2kbits/s speed=0.0166x elapsed=0:02:12.31    \nframe=  113 fps=0.9 q=46.0 size=       0KiB time=00:00:02.22 bitrate=   0.2kbits/s speed=0.0167x elapsed=0:02:12.82    \nframe=  115 fps=0.9 q=44.0 size=       0KiB time=00:00:02.26 bitrate=   0.2kbits/s speed=0.0169x elapsed=0:02:13.35    \nframe=  115 fps=0.9 q=44.0 size=       0KiB time=00:00:02.26 bitrate=   0.2kbits/s speed=0.0169x elapsed=0:02:13.87    \nframe=  115 fps=0.9 q=44.0 size=       0KiB time=00:00:02.26 bitrate=   0.2kbits/s speed=0.0168x elapsed=0:02:14.38    \nframe=  116 fps=0.9 q=36.7 size=       0KiB time=00:00:02.28 bitrate=   0.2kbits/s speed=0.0169x elapsed=0:02:14.90    \nframe=  117 fps=0.9 q=43.0 size=     256KiB time=00:00:02.30 bitrate= 912.0kbits/s speed=0.017x elapsed=0:02:15.42    \nframe=  119 fps=0.9 q=45.0 size=     256KiB time=00:00:02.34 bitrate= 896.4kbits/s speed=0.0172x elapsed=0:02:15.94    \nframe=  119 fps=0.9 q=45.0 size=     256KiB time=00:00:02.34 bitrate= 896.4kbits/s speed=0.0171x elapsed=0:02:16.53    \nframe=  122 fps=0.9 q=44.0 size=     256KiB time=00:00:02.40 bitrate= 874.0kbits/s speed=0.0175x elapsed=0:02:17.10    \nframe=  122 fps=0.9 q=44.0 size=     256KiB time=00:00:02.40 bitrate= 874.0kbits/s speed=0.0174x elapsed=0:02:17.63    \nframe=  124 fps=0.9 q=45.0 size=     256KiB time=00:00:02.44 bitrate= 859.6kbits/s speed=0.0177x elapsed=0:02:18.16    \nframe=  125 fps=0.9 q=45.0 size=     256KiB time=00:00:02.46 bitrate= 852.6kbits/s speed=0.0177x elapsed=0:02:18.66    \nframe=  125 fps=0.9 q=45.0 size=     256KiB time=00:00:02.46 bitrate= 852.6kbits/s speed=0.0177x elapsed=0:02:19.23    \nframe=  127 fps=0.9 q=44.0 size=     256KiB time=00:00:02.50 bitrate= 839.0kbits/s speed=0.0179x elapsed=0:02:19.81    \nframe=  127 fps=0.9 q=44.0 size=     256KiB time=00:00:02.50 bitrate= 839.0kbits/s speed=0.0178x elapsed=0:02:20.38    \nframe=  128 fps=0.9 q=45.0 size=     256KiB time=00:00:02.52 bitrate= 832.3kbits/s speed=0.0179x elapsed=0:02:20.90    \nframe=  128 fps=0.9 q=45.0 size=     256KiB time=00:00:02.52 bitrate= 832.3kbits/s speed=0.0178x elapsed=0:02:21.46    \nframe=  129 fps=0.9 q=45.0 size=     256KiB time=00:00:02.54 bitrate= 825.8kbits/s speed=0.0179x elapsed=0:02:21.99    \nframe=  130 fps=0.9 q=45.0 size=     256KiB time=00:00:02.56 bitrate= 819.3kbits/s speed=0.018x elapsed=0:02:22.51    \nframe=  130 fps=0.9 q=45.0 size=     256KiB time=00:00:02.56 bitrate= 819.3kbits/s speed=0.0179x elapsed=0:02:23.05    \nframe=  131 fps=0.9 q=36.9 size=     256KiB time=00:00:02.58 bitrate= 813.0kbits/s speed=0.018x elapsed=0:02:23.58    \nframe=  132 fps=0.9 q=44.0 size=     256KiB time=00:00:02.60 bitrate= 806.7kbits/s speed=0.018x elapsed=0:02:24.10    \nframe=  133 fps=0.9 q=45.0 size=     256KiB time=00:00:02.62 bitrate= 800.6kbits/s speed=0.0181x elapsed=0:02:24.63    \nframe=  133 fps=0.9 q=45.0 size=     256KiB time=00:00:02.62 bitrate= 800.6kbits/s speed=0.018x elapsed=0:02:25.17    \nframe=  134 fps=0.9 q=44.0 size=     256KiB time=00:00:02.64 bitrate= 794.5kbits/s speed=0.0181x elapsed=0:02:25.70    \nframe=  134 fps=0.9 q=44.0 size=     256KiB time=00:00:02.64 bitrate= 794.5kbits/s speed=0.0181x elapsed=0:02:26.25    \nframe=  135 fps=0.9 q=44.0 size=     256KiB time=00:00:02.66 bitrate= 788.5kbits/s speed=0.0181x elapsed=0:02:26.82    \nframe=  135 fps=0.9 q=44.0 size=     256KiB time=00:00:02.66 bitrate= 788.5kbits/s speed=0.0181x elapsed=0:02:27.33    \nframe=  135 fps=0.9 q=44.0 size=     256KiB time=00:00:02.66 bitrate= 788.5kbits/s speed=0.018x elapsed=0:02:27.86    \nframe=  135 fps=0.9 q=44.0 size=     256KiB time=00:00:02.66 bitrate= 788.5kbits/s speed=0.0179x elapsed=0:02:28.41    \nframe=  137 fps=0.9 q=43.0 size=     256KiB time=00:00:02.70 bitrate= 776.9kbits/s speed=0.0181x elapsed=0:02:28.92    \nframe=  137 fps=0.9 q=43.0 size=     256KiB time=00:00:02.70 bitrate= 776.9kbits/s speed=0.0181x elapsed=0:02:29.45    \nframe=  137 fps=0.9 q=43.0 size=     256KiB time=00:00:02.70 bitrate= 776.9kbits/s speed=0.018x elapsed=0:02:29.99    \nframe=  137 fps=0.9 q=43.0 size=     256KiB time=00:00:02.70 bitrate= 776.9kbits/s speed=0.0179x elapsed=0:02:30.52    \nframe=  137 fps=0.9 q=43.0 size=     256KiB time=00:00:02.70 bitrate= 776.9kbits/s speed=0.0179x elapsed=0:02:31.08    \nframe=  138 fps=0.9 q=44.0 size=     256KiB time=00:00:02.72 bitrate= 771.1kbits/s speed=0.0179x elapsed=0:02:31.63    \nframe=  139 fps=0.9 q=44.0 size=     256KiB time=00:00:02.74 bitrate= 765.5kbits/s speed=0.018x elapsed=0:02:32.15    \nframe=  142 fps=0.9 q=44.0 size=     256KiB time=00:00:02.80 bitrate= 749.1kbits/s speed=0.0183x elapsed=0:02:32.69    \nframe=  142 fps=0.9 q=44.0 size=     256KiB time=00:00:02.80 bitrate= 749.1kbits/s speed=0.0183x elapsed=0:02:33.21    \nframe=  143 fps=0.9 q=44.0 size=     256KiB time=00:00:02.82 bitrate= 743.8kbits/s speed=0.0183x elapsed=0:02:33.73    \nframe=  146 fps=0.9 q=43.0 size=     256KiB time=00:00:02.88 bitrate= 728.3kbits/s speed=0.0187x elapsed=0:02:34.26    \nframe=  147 fps=0.9 q=44.0 size=     256KiB time=00:00:02.90 bitrate= 723.3kbits/s speed=0.0187x elapsed=0:02:34.85    \nframe=  147 fps=0.9 q=44.0 size=     256KiB time=00:00:02.90 bitrate= 723.3kbits/s speed=0.0187x elapsed=0:02:35.43    \nframe=  148 fps=0.9 q=43.0 size=     256KiB time=00:00:02.92 bitrate= 718.3kbits/s speed=0.0187x elapsed=0:02:35.99    \nframe=  150 fps=1.0 q=41.9 size=     256KiB time=00:00:02.96 bitrate= 708.6kbits/s speed=0.0189x elapsed=0:02:36.58    \nframe=  150 fps=1.0 q=41.9 size=     256KiB time=00:00:02.96 bitrate= 708.6kbits/s speed=0.0188x elapsed=0:02:37.13    \nframe=  151 fps=1.0 q=43.0 size=     256KiB time=00:00:02.98 bitrate= 703.9kbits/s speed=0.0189x elapsed=0:02:37.66    \nframe=  153 fps=1.0 q=44.0 size=     256KiB time=00:00:03.02 bitrate= 694.5kbits/s speed=0.0191x elapsed=0:02:38.28    \nframe=  153 fps=1.0 q=44.0 size=     256KiB time=00:00:03.02 bitrate= 694.5kbits/s speed=0.019x elapsed=0:02:38.79    \nframe=  154 fps=1.0 q=36.9 size=     256KiB time=00:00:03.02 bitrate= 694.5kbits/s speed=0.019x elapsed=0:02:39.35    \nframe=  154 fps=1.0 q=36.9 size=     256KiB time=00:00:03.04 bitrate= 690.0kbits/s speed=0.019x elapsed=0:02:40.04    \nframe=  154 fps=1.0 q=36.9 size=     256KiB time=00:00:03.04 bitrate= 690.0kbits/s speed=0.0189x elapsed=0:02:40.57    \nframe=  154 fps=1.0 q=36.9 size=     256KiB time=00:00:03.04 bitrate= 690.0kbits/s speed=0.0189x elapsed=0:02:41.13    \nframe=  155 fps=1.0 q=38.6 size=     256KiB time=00:00:03.06 bitrate= 685.5kbits/s speed=0.0189x elapsed=0:02:41.65    \nframe=  156 fps=1.0 q=44.0 size=     256KiB time=00:00:03.08 bitrate= 681.0kbits/s speed=0.019x elapsed=0:02:42.17    \nframe=  156 fps=1.0 q=44.0 size=     256KiB time=00:00:03.08 bitrate= 681.0kbits/s speed=0.0189x elapsed=0:02:42.69    \nframe=  156 fps=1.0 q=44.0 size=     256KiB time=00:00:03.08 bitrate= 681.0kbits/s speed=0.0189x elapsed=0:02:43.23    \nframe=  156 fps=1.0 q=44.0 size=     256KiB time=00:00:03.08 bitrate= 681.0kbits/s speed=0.0188x elapsed=0:02:43.78    \nframe=  156 fps=0.9 q=44.0 size=     256KiB time=00:00:03.08 bitrate= 681.0kbits/s speed=0.0187x elapsed=0:02:44.33    \nframe=  156 fps=0.9 q=44.0 size=     256KiB time=00:00:03.08 bitrate= 681.0kbits/s speed=0.0187x elapsed=0:02:44.92    \nframe=  156 fps=0.9 q=44.0 size=     256KiB time=00:00:03.08 bitrate= 681.0kbits/s speed=0.0186x elapsed=0:02:45.53    \nframe=  156 fps=0.9 q=44.0 size=     256KiB time=00:00:03.08 bitrate= 681.0kbits/s speed=0.0185x elapsed=0:02:46.07    \nframe=  156 fps=0.9 q=44.0 size=     256KiB time=00:00:03.08 bitrate= 681.0kbits/s speed=0.0185x elapsed=0:02:46.58    \nframe=  158 fps=0.9 q=44.0 size=     256KiB time=00:00:03.12 bitrate= 672.3kbits/s speed=0.0187x elapsed=0:02:47.10    \nframe=  158 fps=0.9 q=44.0 size=     256KiB time=00:00:03.12 bitrate= 672.3kbits/s speed=0.0186x elapsed=0:02:47.66    \nframe=  158 fps=0.9 q=44.0 size=     256KiB time=00:00:03.12 bitrate= 672.3kbits/s speed=0.0185x elapsed=0:02:48.37    \nframe=  158 fps=0.9 q=44.0 size=     256KiB time=00:00:03.12 bitrate= 672.3kbits/s speed=0.0185x elapsed=0:02:48.97    \nframe=  161 fps=0.9 q=44.0 size=     256KiB time=00:00:03.18 bitrate= 659.6kbits/s speed=0.0188x elapsed=0:02:49.49    \nframe=  161 fps=0.9 q=44.0 size=     256KiB time=00:00:03.18 bitrate= 659.6kbits/s speed=0.0187x elapsed=0:02:50.01    \nframe=  161 fps=0.9 q=44.0 size=     256KiB time=00:00:03.18 bitrate= 659.6kbits/s speed=0.0186x elapsed=0:02:50.60    \nframe=  162 fps=0.9 q=43.0 size=     256KiB time=00:00:03.20 bitrate= 655.5kbits/s speed=0.0187x elapsed=0:02:51.19    \nframe=  162 fps=0.9 q=43.0 size=     256KiB time=00:00:03.20 bitrate= 655.5kbits/s speed=0.0186x elapsed=0:02:51.70    \nframe=  164 fps=1.0 q=36.0 size=     256KiB time=00:00:03.22 bitrate= 651.4kbits/s speed=0.0187x elapsed=0:02:52.24    \nframe=  164 fps=0.9 q=36.0 size=     256KiB time=00:00:03.24 bitrate= 647.4kbits/s speed=0.0188x elapsed=0:02:52.79    \nframe=  165 fps=1.0 q=43.0 size=     256KiB time=00:00:03.26 bitrate= 643.4kbits/s speed=0.0188x elapsed=0:02:53.31    \nframe=  167 fps=1.0 q=43.0 size=     256KiB time=00:00:03.30 bitrate= 635.6kbits/s speed=0.019x elapsed=0:02:53.83    \nframe=  167 fps=1.0 q=43.0 size=     256KiB time=00:00:03.30 bitrate= 635.6kbits/s speed=0.0189x elapsed=0:02:54.39    \nframe=  168 fps=1.0 q=35.4 size=     256KiB time=00:00:03.32 bitrate= 631.8kbits/s speed=0.019x elapsed=0:02:54.96    \nframe=  168 fps=1.0 q=35.4 size=     256KiB time=00:00:03.32 bitrate= 631.8kbits/s speed=0.0189x elapsed=0:02:55.49    \nframe=  171 fps=1.0 q=43.0 size=     256KiB time=00:00:03.38 bitrate= 620.6kbits/s speed=0.0192x elapsed=0:02:56.01    \nframe=  172 fps=1.0 q=43.0 size=     256KiB time=00:00:03.40 bitrate= 616.9kbits/s speed=0.0193x elapsed=0:02:56.57    \nframe=  172 fps=1.0 q=43.0 size=     256KiB time=00:00:03.40 bitrate= 616.9kbits/s speed=0.0192x elapsed=0:02:57.11    \nframe=  173 fps=1.0 q=38.6 size=     256KiB time=00:00:03.42 bitrate= 613.3kbits/s speed=0.0193x elapsed=0:02:57.64    \nframe=  174 fps=1.0 q=42.9 size=     256KiB time=00:00:03.44 bitrate= 609.7kbits/s speed=0.0193x elapsed=0:02:58.18    \nframe=  174 fps=1.0 q=42.9 size=     256KiB time=00:00:03.44 bitrate= 609.7kbits/s speed=0.0192x elapsed=0:02:58.70    \nframe=  176 fps=1.0 q=43.0 size=     256KiB time=00:00:03.48 bitrate= 602.7kbits/s speed=0.0194x elapsed=0:02:59.23    \nframe=  176 fps=1.0 q=43.0 size=     256KiB time=00:00:03.48 bitrate= 602.7kbits/s speed=0.0194x elapsed=0:02:59.77    \nframe=  177 fps=1.0 q=35.6 size=     256KiB time=00:00:03.50 bitrate= 599.3kbits/s speed=0.0194x elapsed=0:03:00.33    \nframe=  178 fps=1.0 q=41.9 size=     256KiB time=00:00:03.52 bitrate= 595.9kbits/s speed=0.0195x elapsed=0:03:00.86    \nframe=  180 fps=1.0 q=43.0 size=     256KiB time=00:00:03.56 bitrate= 589.2kbits/s speed=0.0196x elapsed=0:03:01.37    \nframe=  181 fps=1.0 q=43.0 size=     256KiB time=00:00:03.58 bitrate= 585.9kbits/s speed=0.0197x elapsed=0:03:01.95    \nframe=  181 fps=1.0 q=43.0 size=     256KiB time=00:00:03.58 bitrate= 585.9kbits/s speed=0.0196x elapsed=0:03:02.52    \nframe=  184 fps=1.0 q=44.0 size=     256KiB time=00:00:03.64 bitrate= 576.2kbits/s speed=0.0199x elapsed=0:03:03.02    \nframe=  185 fps=1.0 q=44.0 size=     256KiB time=00:00:03.66 bitrate= 573.1kbits/s speed=0.0199x elapsed=0:03:03.55    \nframe=  185 fps=1.0 q=44.0 size=     256KiB time=00:00:03.66 bitrate= 573.1kbits/s speed=0.0199x elapsed=0:03:04.09    \nframe=  186 fps=1.0 q=36.3 size=     256KiB time=00:00:03.68 bitrate= 570.0kbits/s speed=0.0199x elapsed=0:03:04.60    \nframe=  186 fps=1.0 q=36.3 size=     256KiB time=00:00:03.68 bitrate= 570.0kbits/s speed=0.0199x elapsed=0:03:05.12    \nframe=  186 fps=1.0 q=36.3 size=     256KiB time=00:00:03.68 bitrate= 570.0kbits/s speed=0.0198x elapsed=0:03:05.63    \nframe=  189 fps=1.0 q=43.9 size=     256KiB time=00:00:03.74 bitrate= 560.8kbits/s speed=0.0201x elapsed=0:03:06.15    \nframe=  189 fps=1.0 q=43.9 size=     256KiB time=00:00:03.74 bitrate= 560.8kbits/s speed=0.02x elapsed=0:03:06.68    \nframe=  191 fps=1.0 q=39.4 size=     256KiB time=00:00:03.78 bitrate= 554.9kbits/s speed=0.0202x elapsed=0:03:07.26    \nframe=  192 fps=1.0 q=43.4 size=     256KiB time=00:00:03.80 bitrate= 552.0kbits/s speed=0.0202x elapsed=0:03:07.77    \nframe=  193 fps=1.0 q=44.0 size=     256KiB time=00:00:03.82 bitrate= 549.1kbits/s speed=0.0203x elapsed=0:03:08.31    \nframe=  195 fps=1.0 q=43.0 size=     256KiB time=00:00:03.86 bitrate= 543.4kbits/s speed=0.0204x elapsed=0:03:08.88    \nframe=  195 fps=1.0 q=43.0 size=     256KiB time=00:00:03.86 bitrate= 543.4kbits/s speed=0.0204x elapsed=0:03:09.41    \nframe=  195 fps=1.0 q=43.0 size=     256KiB time=00:00:03.86 bitrate= 543.4kbits/s speed=0.0203x elapsed=0:03:09.91    \nframe=  196 fps=1.0 q=36.6 size=     256KiB time=00:00:03.88 bitrate= 540.6kbits/s speed=0.0204x elapsed=0:03:10.42    \nframe=  199 fps=1.0 q=44.0 size=     256KiB time=00:00:03.94 bitrate= 532.4kbits/s speed=0.0206x elapsed=0:03:10.95    \nframe=  200 fps=1.0 q=44.0 size=     256KiB time=00:00:03.96 bitrate= 529.7kbits/s speed=0.0207x elapsed=0:03:11.47    \nframe=  200 fps=1.0 q=44.0 size=     256KiB time=00:00:03.96 bitrate= 529.7kbits/s speed=0.0206x elapsed=0:03:11.98    \nframe=  202 fps=1.0 q=44.0 size=     256KiB time=00:00:04.00 bitrate= 524.4kbits/s speed=0.0208x elapsed=0:03:12.52    \nframe=  202 fps=1.0 q=44.0 size=     256KiB time=00:00:04.00 bitrate= 524.4kbits/s speed=0.0207x elapsed=0:03:13.09    \nframe=  203 fps=1.0 q=45.0 size=     256KiB time=00:00:04.02 bitrate= 521.8kbits/s speed=0.0208x elapsed=0:03:13.71    \nframe=  204 fps=1.1 q=46.0 size=     256KiB time=00:00:04.04 bitrate= 519.2kbits/s speed=0.0208x elapsed=0:03:14.27    \nframe=  205 fps=1.1 q=39.0 size=     256KiB time=00:00:04.06 bitrate= 516.6kbits/s speed=0.0208x elapsed=0:03:14.83    \nframe=  205 fps=1.0 q=39.0 size=     256KiB time=00:00:04.06 bitrate= 516.6kbits/s speed=0.0208x elapsed=0:03:15.44    \nframe=  207 fps=1.1 q=46.0 size=     256KiB time=00:00:04.10 bitrate= 511.6kbits/s speed=0.0209x elapsed=0:03:16.09    \nframe=  207 fps=1.1 q=46.0 size=     256KiB time=00:00:04.10 bitrate= 511.6kbits/s speed=0.0208x elapsed=0:03:16.67    \nframe=  207 fps=1.0 q=46.0 size=     256KiB time=00:00:04.10 bitrate= 511.6kbits/s speed=0.0208x elapsed=0:03:17.34    \nframe=  207 fps=1.0 q=46.0 size=     256KiB time=00:00:04.10 bitrate= 511.6kbits/s speed=0.0207x elapsed=0:03:17.89    \nframe=  207 fps=1.0 q=46.0 size=     256KiB time=00:00:04.10 bitrate= 511.6kbits/s speed=0.0207x elapsed=0:03:18.40    \nframe=  208 fps=1.0 q=46.0 size=     256KiB time=00:00:04.12 bitrate= 509.1kbits/s speed=0.0207x elapsed=0:03:18.93    \nframe=  208 fps=1.0 q=46.0 size=     256KiB time=00:00:04.12 bitrate= 509.1kbits/s speed=0.0207x elapsed=0:03:19.47    \nframe=  210 fps=1.0 q=40.7 size=     256KiB time=00:00:04.16 bitrate= 504.2kbits/s speed=0.0208x elapsed=0:03:20.06    \nframe=  213 fps=1.1 q=46.0 size=     256KiB time=00:00:04.22 bitrate= 497.0kbits/s speed=0.021x elapsed=0:03:20.70    \nframe=  213 fps=1.1 q=46.0 size=     256KiB time=00:00:04.22 bitrate= 497.0kbits/s speed=0.021x elapsed=0:03:21.22    \nframe=  214 fps=1.1 q=45.0 size=     256KiB time=00:00:04.24 bitrate= 494.7kbits/s speed=0.021x elapsed=0:03:21.76    \nframe=  216 fps=1.1 q=44.0 size=     256KiB time=00:00:04.28 bitrate= 490.1kbits/s speed=0.0212x elapsed=0:03:22.31    \nframe=  216 fps=1.1 q=44.0 size=     256KiB time=00:00:04.28 bitrate= 490.1kbits/s speed=0.0211x elapsed=0:03:23.01    \nframe=  218 fps=1.1 q=46.0 size=     256KiB time=00:00:04.32 bitrate= 485.5kbits/s speed=0.0212x elapsed=0:03:23.65    \nframe=  218 fps=1.1 q=46.0 size=     256KiB time=00:00:04.32 bitrate= 485.5kbits/s speed=0.0212x elapsed=0:03:24.24    \nframe=  218 fps=1.1 q=46.0 size=     256KiB time=00:00:04.32 bitrate= 485.5kbits/s speed=0.0211x elapsed=0:03:24.80    \nframe=  218 fps=1.1 q=46.0 size=     256KiB time=00:00:04.32 bitrate= 485.5kbits/s speed=0.021x elapsed=0:03:25.47    \nframe=  218 fps=1.1 q=46.0 size=     256KiB time=00:00:04.32 bitrate= 485.5kbits/s speed=0.021x elapsed=0:03:25.99    \nframe=  220 fps=1.1 q=40.0 size=     256KiB time=00:00:04.36 bitrate= 481.1kbits/s speed=0.0211x elapsed=0:03:26.53    \nframe=  221 fps=1.1 q=45.0 size=     256KiB time=00:00:04.38 bitrate= 478.9kbits/s speed=0.0212x elapsed=0:03:27.04    \nframe=  221 fps=1.1 q=45.0 size=     256KiB time=00:00:04.38 bitrate= 478.9kbits/s speed=0.0211x elapsed=0:03:27.62    \nframe=  222 fps=1.1 q=46.0 size=     256KiB time=00:00:04.40 bitrate= 476.7kbits/s speed=0.0211x elapsed=0:03:28.16    \nframe=  222 fps=1.1 q=46.0 size=     256KiB time=00:00:04.40 bitrate= 476.7kbits/s speed=0.0211x elapsed=0:03:28.68    \nframe=  222 fps=1.1 q=46.0 size=     256KiB time=00:00:04.40 bitrate= 476.7kbits/s speed=0.021x elapsed=0:03:29.20    \nframe=  222 fps=1.1 q=46.0 size=     256KiB time=00:00:04.40 bitrate= 476.7kbits/s speed=0.021x elapsed=0:03:29.72    \nframe=  222 fps=1.1 q=46.0 size=     256KiB time=00:00:04.40 bitrate= 476.7kbits/s speed=0.0209x elapsed=0:03:30.29    \nframe=  223 fps=1.1 q=45.0 size=     512KiB time=00:00:04.42 bitrate= 949.0kbits/s speed=0.021x elapsed=0:03:30.86    \nframe=  223 fps=1.1 q=45.0 size=     512KiB time=00:00:04.42 bitrate= 949.0kbits/s speed=0.0209x elapsed=0:03:31.38    \nframe=  225 fps=1.1 q=43.7 size=     512KiB time=00:00:04.46 bitrate= 940.5kbits/s speed=0.021x elapsed=0:03:31.92    \nframe=  225 fps=1.1 q=43.7 size=     512KiB time=00:00:04.46 bitrate= 940.5kbits/s speed=0.021x elapsed=0:03:32.44    \nframe=  225 fps=1.1 q=43.7 size=     512KiB time=00:00:04.46 bitrate= 940.5kbits/s speed=0.0209x elapsed=0:03:32.96    \nframe=  225 fps=1.1 q=43.7 size=     512KiB time=00:00:04.46 bitrate= 940.5kbits/s speed=0.0209x elapsed=0:03:33.50    \nframe=  226 fps=1.1 q=45.0 size=     512KiB time=00:00:04.48 bitrate= 936.3kbits/s speed=0.0209x elapsed=0:03:34.02    \nframe=  227 fps=1.1 q=45.0 size=     512KiB time=00:00:04.50 bitrate= 932.1kbits/s speed=0.021x elapsed=0:03:34.54    \nframe=  227 fps=1.1 q=45.0 size=     512KiB time=00:00:04.50 bitrate= 932.1kbits/s speed=0.0209x elapsed=0:03:35.05    \nframe=  227 fps=1.1 q=45.0 size=     512KiB time=00:00:04.50 bitrate= 932.1kbits/s speed=0.0209x elapsed=0:03:35.57    \nframe=  227 fps=1.1 q=45.0 size=     512KiB time=00:00:04.50 bitrate= 932.1kbits/s speed=0.0208x elapsed=0:03:36.09    \nframe=  227 fps=1.0 q=45.0 size=     512KiB time=00:00:04.50 bitrate= 932.1kbits/s speed=0.0208x elapsed=0:03:36.69    \nframe=  228 fps=1.0 q=37.6 size=     512KiB time=00:00:04.52 bitrate= 928.0kbits/s speed=0.0208x elapsed=0:03:37.26    \nframe=  228 fps=1.0 q=37.6 size=     512KiB time=00:00:04.52 bitrate= 928.0kbits/s speed=0.0208x elapsed=0:03:37.80    \nframe=  229 fps=1.0 q=44.0 size=     512KiB time=00:00:04.54 bitrate= 923.9kbits/s speed=0.0208x elapsed=0:03:38.32    \nframe=  230 fps=1.1 q=45.0 size=     512KiB time=00:00:04.56 bitrate= 919.9kbits/s speed=0.0208x elapsed=0:03:38.84    \nframe=  230 fps=1.0 q=45.0 size=     512KiB time=00:00:04.56 bitrate= 919.9kbits/s speed=0.0208x elapsed=0:03:39.40    \nframe=  230 fps=1.0 q=45.0 size=     512KiB time=00:00:04.56 bitrate= 919.9kbits/s speed=0.0207x elapsed=0:03:40.00    \nframe=  230 fps=1.0 q=45.0 size=     512KiB time=00:00:04.56 bitrate= 919.9kbits/s speed=0.0207x elapsed=0:03:40.52    \nframe=  231 fps=1.0 q=45.0 size=     512KiB time=00:00:04.58 bitrate= 915.9kbits/s speed=0.0207x elapsed=0:03:41.04    \nframe=  231 fps=1.0 q=45.0 size=     512KiB time=00:00:04.58 bitrate= 915.9kbits/s speed=0.0207x elapsed=0:03:41.56    \nframe=  231 fps=1.0 q=45.0 size=     512KiB time=00:00:04.58 bitrate= 915.9kbits/s speed=0.0206x elapsed=0:03:42.13    \nframe=  231 fps=1.0 q=45.0 size=     512KiB time=00:00:04.58 bitrate= 915.9kbits/s speed=0.0206x elapsed=0:03:42.67    \nframe=  231 fps=1.0 q=45.0 size=     512KiB time=00:00:04.58 bitrate= 915.9kbits/s speed=0.0205x elapsed=0:03:43.21    \nframe=  232 fps=1.0 q=37.7 size=     512KiB time=00:00:04.60 bitrate= 911.9kbits/s speed=0.0206x elapsed=0:03:43.73    \nframe=  232 fps=1.0 q=37.7 size=     512KiB time=00:00:04.60 bitrate= 911.9kbits/s speed=0.0205x elapsed=0:03:44.33    \nframe=  232 fps=1.0 q=37.7 size=     512KiB time=00:00:04.60 bitrate= 911.9kbits/s speed=0.0205x elapsed=0:03:44.88    \nframe=  233 fps=1.0 q=43.7 size=     512KiB time=00:00:04.62 bitrate= 907.9kbits/s speed=0.0205x elapsed=0:03:45.42    \nframe=  233 fps=1.0 q=43.7 size=     512KiB time=00:00:04.62 bitrate= 907.9kbits/s speed=0.0204x elapsed=0:03:45.96    \nframe=  236 fps=1.0 q=45.0 size=     512KiB time=00:00:04.68 bitrate= 896.3kbits/s speed=0.0207x elapsed=0:03:46.48    \nframe=  236 fps=1.0 q=45.0 size=     512KiB time=00:00:04.68 bitrate= 896.3kbits/s speed=0.0206x elapsed=0:03:47.03    \nframe=  237 fps=1.0 q=39.3 size=     512KiB time=00:00:04.70 bitrate= 892.5kbits/s speed=0.0207x elapsed=0:03:47.54    \nframe=  237 fps=1.0 q=39.3 size=     512KiB time=00:00:04.70 bitrate= 892.5kbits/s speed=0.0206x elapsed=0:03:48.06    \nframe=  239 fps=1.0 q=45.0 size=     512KiB time=00:00:04.74 bitrate= 884.9kbits/s speed=0.0207x elapsed=0:03:48.57    \nframe=  240 fps=1.0 q=43.0 size=     512KiB time=00:00:04.76 bitrate= 881.2kbits/s speed=0.0208x elapsed=0:03:49.09    \nframe=  243 fps=1.1 q=41.0 size=     512KiB time=00:00:04.82 bitrate= 870.3kbits/s speed=0.021x elapsed=0:03:49.61    \nframe=  243 fps=1.1 q=41.0 size=     512KiB time=00:00:04.82 bitrate= 870.3kbits/s speed=0.0209x elapsed=0:03:50.12    \nframe=  244 fps=1.1 q=42.0 size=     512KiB time=00:00:04.82 bitrate= 870.3kbits/s speed=0.0209x elapsed=0:03:50.64    \nframe=  244 fps=1.1 q=42.0 size=     512KiB time=00:00:04.84 bitrate= 866.7kbits/s speed=0.0209x elapsed=0:03:51.18    \nframe=  245 fps=1.1 q=43.0 size=     512KiB time=00:00:04.86 bitrate= 863.1kbits/s speed=0.021x elapsed=0:03:51.70    \nframe=  247 fps=1.1 q=37.4 size=     512KiB time=00:00:04.90 bitrate= 856.1kbits/s speed=0.0211x elapsed=0:03:52.22    \nframe=  248 fps=1.1 q=39.0 size=     512KiB time=00:00:04.92 bitrate= 852.6kbits/s speed=0.0211x elapsed=0:03:52.74    \nframe=  248 fps=1.1 q=39.0 size=     512KiB time=00:00:04.92 bitrate= 852.6kbits/s speed=0.0211x elapsed=0:03:53.26    \n[mp4 @ 000002660231aa40] Starting second pass: moving the moov atom to the beginning of the file\n[out#0/mp4 @ 00000266023a7d80] video:580KiB audio:0KiB subtitle:0KiB other streams:0KiB global headers:2KiB muxing overhead: 1.061867%\nframe=  250 fps=1.1 q=41.0 Lsize=     586KiB time=00:00:04.96 bitrate= 968.3kbits/s speed=0.0212x elapsed=0:03:53.81    \nx265 [info]: frame I:      1, Avg QP:47.06  kb/s: 6071.20 \nx265 [info]: frame P:     53, Avg QP:39.38  kb/s: 3792.20 \nx265 [info]: frame B:    196, Avg QP:45.29  kb/s: 153.89  \nx265 [info]: Weighted P-Frames: Y:0.0% UV:0.0%\n\nencoded 250 frames in 231.20s (1.08 fps), 948.88 kb/s, Avg QP:44.04\n",
  "seconds": 234.80792450904846,
  "probe_out": {}
}